<mxfile host="app.diagrams.net" agent="Mozilla/5.0 (Windows NT 10.0; Win64; x64) AppleWebKit/537.36 (KHTML, like Gecko) Chrome/136.0.0.0 Safari/537.36" version="27.0.3">
  <diagram name="Page-1" id="mNUyo5p9oBnqaehiW4xh">
    <mxGraphModel dx="2113" dy="1456" grid="1" gridSize="10" guides="1" tooltips="1" connect="1" arrows="1" fold="1" page="1" pageScale="1" pageWidth="1920" pageHeight="1080" math="0" shadow="0">
      <root>
        <mxCell id="0" />
        <mxCell id="1" parent="0" />
        <mxCell id="e_JsKtyu3cQXQLxI_MyL-2" value="" style="shape=image;verticalLabelPosition=bottom;labelBackgroundColor=default;verticalAlign=top;aspect=fixed;imageAspect=0;image=data:image/png,iVBORw0KGgoAAAANSUhEUgAAAJAAAACQCAYAAADnRuK4AAAAAXNSR0IArs4c6QAABzpJREFUeF7tnQFS3DAMRZ2TtJyk7UlaTgKcpPQkhZOUm7gr6syky8JKlmRLyd8ZZhmwvI708i0rzmYpeMEDCg8sCluYwgMFAAEClQcAkMp9MAZAYEDlAQCkch+MARAYUHkAAKncB2MABAZUHgBAKvfBGACBAZUHAJDKfTAGQGBA5QEApHIfjAEQGFB5AACp3AdjAAQGVB4AQCr3wfiwANVaP5dS6OdLw+Bre6e/0Wt9p99fNqisv9P7c/vfy7Is2zaHIeswADVgvpdSCJQVFstArwA9EljLsjxZdh61r90CNACYazEloOjnaVmWh2uNs/5/dwDVWkldSGl+BArKK0hNmUihdvPaDUC11rtTVO4TRIZgetyLKqUHKBE452zvAqS0ALWp6ufZaimBAL0ZIoH0sCxLyqktHUAtOSZwPFZSMwEkkG6zrd7SANTAoTwnUnLsARwpESlSirpSCoAS5zm9gKXJj8IDVGv97Thd0dJ6rdeswabq8mv1mVSgKd9amV6r0582uRf9zWs6pdXabS+FI+zCAuSU67ye2daV4s1lEao/WQNFY/4WdUoLCVBbYZHyWLxWaH6NCkIDai1oWqhT2AQ7HEC1VkqSaZWleYXJITaXVLRFzjDHtA1MKICMkuX7iFVeQ5BCHV8YgAyS5VCOfU8+jUCiC7TfNBJtZRsCICU8tJKiAlyKuskaOIO6VgiIpgNUa6V8p6c4GDaxlJzdDaQ/EptN2+mqOxUgxWprF/CcqRGtOre7ILlMTYVoGkAKeEJINze63HaKKW3qyTQFIIVsh6/McoG51E6RYE8rNs4CqOfyBCXKKbc8SKHqLGfQpZcb6Wdp2w8HqHPFRaX8Q2xSV+ZFwxV6KECdZ9bh4DmDSLpCG5pUDwOoM+85LDwbiKSXdoYm1SMBkuY9Q88kbS7gad+h3MOmsiEAdSzZd7lU74Wsc2vLEPUeBZBEfaasJnqDO8quQSQpNg45Cd0B6tieMeTMGRV4y8/pyCPdfTkCIIn6uB+wZUBn9CVMB9zV3BUgofoMS/xmBN7yM4W1NNcCrDdAVMPgXiCE+jApE05lrirkBpBw6Qn1YcKzqQ9JtsG4+dcTIIn63GTbECaMt3nzKCrkAhByH3NeLnYo3IznkiJ4AcSW19MGeJcxjAnh3E8RqpBLXcgleKf8pzJdi8sVTEe910yg9i7JtDlAggMinyD30QNEq1zuFXvzE9YDIG7h0G1loIxJOnNBXch8GvMAiDt9uRa40lGgGLCgZGI+jZkChOlLQYHCVJhMm67GrAHC6ksBgsZUMI2Z5kHWAHGLh8h/NLRcsBVMY6Z5kDVAyH+MweB2J7hKb5oHmQEkmYdRPORiwW8n8b9l+cQSIO7mb1MJ5bt4/y0FeZBZIj0DIOQ/TiwLADJLpC0B4q7AAJAfQNwYhASIW4E2G7xTHNJ2O2MlZqlAXIBQgXZCVFDINctDLQHi1oAAkB9A9I2wnG+3NVvKzwDIbAXgFIe03c6oBc0ACFs4nBAV1IJCKhCrCo0iohM9pRQBQMUqDpYKBID82GD3zN0NCoDYLj1WQwB0rHibHy0AMnfpsToEQMeKt/nRAiBzlx6rQwB0rHibHy0AMnfpsTrcPUDtkZMeUaXq6oNHx9Z9toueX6z7bf2xHlyTtg7k5DTq1uwKs+MYX7sWbPxyGwoAeutaACTADQABIAEub5sCIAAEgFQeAEAq90GBABAAUnkAAKncBwUCQABI5QEApHJfZgW6FR75p1P7e4bNHutA9IjPZ8axb5vQzYVXX2kBkg5ccKfBHgES38Gy+2thAEh0KQMAnWspAAJAF+dXL+nEFCZ7WrVXHN5LqsLf1gOAANB/8GIKwxSGKezqIvnjBoL9QEiikUS/hQkAXTjBvJI35EDIgZADnZ1wUCAokCoLAkAACAA1D6AOpEKhzxgKBAXqI6dZASAABIAwhakYUBlDgaBAAAgKpGJAZQwFggIBICiQigGVMRQICgSAoEAqBlTGUCAoEACCAqkYUBlDgaBAAMhBgbjPC1M5/wPjPd5Y6OWrkA9b4T6x0MspAIjvWbPn1lpu57g7jZ9zDzv/MGUtARDfX2bPrbUEiPu4Rf5hyloCIL6/zB47agnQ51IKfTMEgTTjBYB4Xjf1kxlANHbJE/N4xypqZeoY0ScLGwuW8cKeWc1NHzlqClCDiL4pnfUdNazD5TcCQNd9Jb5R8VqX5gA1iGYk1ADo42ibJc7bj3EBaDOdjcyJANBlgJ5KKZQ0v1xTk57/uwG0gYiSavqaOnr3TLAB0D8CCBT6IXCel0V2Z6sUIleApINB+3weAED5YhZqxAAoVDjyDQYA5YtZqBEDoFDhyDcYAJQvZqFGDIBChSPfYABQvpiFGjEAChWOfIMBQPliFmrEAChUOPINBgDli1moEQOgUOHINxgAlC9moUYMgEKFI99gAFC+mIUaMQAKFY58gwFA+WIWasR/Afw02M1I5W6ZAAAAAElFTkSuQmCC;" vertex="1" parent="1">
          <mxGeometry x="1230" y="110" width="144" height="144" as="geometry" />
        </mxCell>
        <mxCell id="e_JsKtyu3cQXQLxI_MyL-3" value="" style="shape=image;verticalLabelPosition=bottom;labelBackgroundColor=default;verticalAlign=top;aspect=fixed;imageAspect=0;image=data:image/png,iVBORw0KGgoAAAANSUhEUgAAAJAAAACQCAYAAADnRuK4AAAAAXNSR0IArs4c6QAACEpJREFUeF7tne2x3iYQhaGSxJU4rsRxJXEqiV2J7UriVELuetCMRqNXnIVlAem8M5n8uAbE8rAfsEAM/FECDRKIDWVZlBIIBIgQNEmAADWJj4UJEBlokgABahIfC98GoJTSnyGE30IIv4cQ/sj/f+II/wwhyH/fQwg/Yozy/26/5QFKKQkw/2Rouglq4YoFoE8xRoHK/Lc0QCkl0TTfzKVyvwoFHoHIXBstCxDhqaL8gzVESwKUzda/VSJ8diHRRAKRmTlbFSAxW2K++NNL4HOM8W99sfMSywFE02Uy9GambEWA/noT4WcTMT63EnGov1h0f0WAaL7aR/5LjPFTezVhvc3UlFKy6PjD6/gZY3xnIYMVNRACkJmALITsWQc6wd4caZOxN6lkQgERoMKgEKBrAREgAnQuAVBFEyACRIBqXANwggWaMJqwUwkQoMK0AwVEE0YTRhNGE1YjAWqgJqmBGpo+UEHKw0xY3uyVz5NvMEubQKm6HUDWHQLrcwMoA/PxRR72lgH41WrzsgQSKJ91NJB1h8D6XABKKWk2drvmJm9ggfIhQCNNWNY6ksgvCf3an1kqxVnDBGhyJ9oondYsoesoLgI0P0Aas/WqN+a5yTRhYHoBOMO6+EBvbVtmQ5rmJhOgyQEyMl1HjWTuD4ETjE60txPdKZmfAJVCEOsZAdZnbsKMzdcmNrPcZJqw+U2YhfN8nG89QEdSfmnCBpgwOQlbs+5z+alWeTnUQNRAJW8A+jto4qmBBmggWXmWO4gsf99jjB8sKyRAky4k5gusBCLLn/laEAGaF6AedxERoNJ0tJ4RYH3m0Y30M6Vk6Uj3+kZGYVdQDgZIojAJ5y2isS4bqqB86ER7O9G7MNliP8zcdDGMnzyM3wObUmqJyMwjr8O30YTNasIOAyUhvWgjjTkz3/s6yoombNIo7OyzFFcMu6SzZkefGmgFDXQy8yXMf7/TSD/ksm/vkxnUQAtpoNISxoi/EyAC1MQdASJABKhnWAnOsC6rvE0j61QYlA8XEkctJDpxUN0MAaIJq4aHYTwgOnCG0YQVZGmVCdn9llZwwGGbDNZHgAjQuQQI0DUZoHzgCVsyCtRAJQmVfbItzXV7blNKyP7YdrXLf/kJSpf7gghQecCQvZ6uJiynt8q2hfZtVoFKnlrqBhMBmhigDI52B/6sR3K5goBkvldGgCYEqPE+oKse/dJIls9QEqDJAOp0pPnYS7MMRQI0EUDKK+wa3fEgD8CJNmq6mJMATQCQIlGsFZpj+ebEMwI0B0A9LlJAYZPnPOVW1ypNRIAGA+Rstl71ttonIkADAXJymGFNVPM8NwEaBJDBFXbbK8iSCy2r0tu79rIqrTm5sUmg6iJOAjQOoJoDgzLIclRn27Y4/fqGBUi1KSNAAwCq1D6qwW2I7N5pHGoCNAYgrfapPtde4WdpQUX2CrkbX+BMtZmKztrcpmpAz75TCZHqKDTaFyaUXRMEA6Q0X6rBvPpE5VUxsBkjQM4mTKkN4IEsxerKduEz9QTIHyB01bnZdB27ptBC8H3SBMgfIPTWsR4AodfEEKCSSkedOnCGaXwgKGoJIVRHXq/6rri4E/a9QPkwCrOKwrwFvv9uxfsbBGhGDaSJwFANWernASDZ4hATWvqZa1Sr/jz+VAaqgd5SLMwisI0WhQkjQKUphs4IcMA1AkedaDiULvV1BxC6Ak4TVhLqQwFClxAYhU0MkPkglvq600BoBAgvIYAamlGYYRQmJ0vRNzDMzJhyJRpeQiBA/guJmjcwqpK8TlagVW3GGN9ZazXUZSi1+/goTASk2FKQfw6bk4sFRNRxV7dHDeSsgTJAaDS0fV3VGa7KpDKV2SRAAwCq0EJSBEpnrQjZ9xKAlyO0jjlN2DVoNYLXaqG9Nvp6duNG3qqQ1eaPuyT7klux/zvsPBOgCR5bUfpCr0CQBPvakxhN2idrUmhpgBrIWANl4Vu+B6bRNMd/Wx3t0Qca5AM1+iotsJyVVZsumrAJTNgkEKmiriN91ECDNdBgiCzWmOgDXTEEzjB1FHbWZt5ukK2OmqPJWrNWbbb2DYHy4V5YYXRMAMqOtWw7yF5ZL4hU60klKgnQJCbsxLeQdSJrbdRssugDZQmg6xLgDDPTQCcDJNpIe73vsRo4v6ekcQjQYgDtnOzticvtovErEydmShYY5eaxy5s8tMAQoEUBeuF071egf11Rp7lZoxWe7LMxCpslCrMYUO86QBPPKMwrCvMGoLU9AjRpFNY6sF7lCRABamKNABEgArSXgPWMAOvrtg7UNLoOhUH50ImmE30uAQJEE9akpwhQGSDNkZimwbhxYTMTv+K5MPQo8o3Hv7lr8GUNpZZWBAi9Fq7U9yf/3SwLYEWANGfZnwzJVd9NktekgeUAyhuGNGP1U8PMfK0M0CzHb+qHcUxJM+d5+/wlNVDWQrUnSccM3Rytmpmu5QHKEIk/ZPGO+xzD2/crzOFZ1oQdtkrEnG1ppn2HYM3aTX2eowiWNWHHjuSLDN7v8pV7naJYASO5fkYyIn/0TqG9DUArjOodv5EA3XFUHftEgByFfcemCNAdR9WxTwTIUdh3bIoA3XFUHftEgByFfcemCNAdR9WxTwTIUdh3bIoA3XFUHfvkAdCTcpjN0yUcWahqygOgJ6WgEqAqDC8KKZ81sm7euz4CZC1xxcvE1k2PqI8A9ZB6SukpOcwEqBNAT8lhJkA9AJI6H+ILEaBeAGWIet+53PPzkboJECKlln9T+WpfS5OeZQmQl7RvmsNMgLwAYjv3kED3leh7iIm9eCUBAkQ2miRAgJrEx8IEiAw0SYAANYmPhf8HL5lA+rgcXbgAAAAASUVORK5CYII=;" vertex="1" parent="1">
          <mxGeometry x="1230" y="320" width="144" height="144" as="geometry" />
        </mxCell>
        <mxCell id="e_JsKtyu3cQXQLxI_MyL-4" value="" style="shape=image;verticalLabelPosition=bottom;labelBackgroundColor=default;verticalAlign=top;aspect=fixed;imageAspect=0;image=data:image/png,iVBORw0KGgoAAAANSUhEUgAAAJAAAACQCAYAAADnRuK4AAAAAXNSR0IArs4c6QAABI9JREFUeF7t2YFt20YYhuG7SRpP0mSTeJLYkySbxJ0k7iRXHSADBmIruvtOrig+AgqnAH+KfPlAPEq1eCkQFKjBrFEFCkAQRAUAivIZBoiBqABAUT7DADEQFQAoymcYIAaiAgBF+QwDxEBUAKAon2GAGIgKABTlMwwQA1EBgKJ8hgFiICoAUJTPMEAMRAUAivIZBoiBqABAUT7DADEQFQAoymd4GaDW2tdSyl+llE+llM/HvwpfT4HnUkr/76mU8k//d621/3/0igG11jqY70c00cEY/tACHdJ9iigC1Fr7djjlhw89bW+2usB9/1SahTQNCJ7V1/F/3d9DrfVx5gimAB1vW79m3tDM1Ra4m/kUmgX005rnaiHMHtjUmmgY0PFpqy+avW6vQF9U/xg5rRlAFs4jhbe17fBaaAaQ29e2UIwcbX8a+zIyMAOojbyBbbdV4PA0NmRiaOOe4vD4fhag0QPZVubtHe2lrhtA27MwdcQATWUz9FIAIBaiAgBF+QwDxEBUAKAon2GAGIgKABTlMwwQA1EBgKJ8hgFiICoAUJTPMEAMRAUAivIZBoiBqABAUT7DADEQFQAoymcYIAaiAgBF+QwDxEBUAKAon2GAGIgKABTlMwwQA1EBgKJ8hgFiICoAUJTPMEAMRAUAivIZBoiBqABAUT7DADEQFQAoymcYIAaiAgBF+QwDxEBUAKAon2GAGIgKABTlMwwQA1EBgKJ8hgFiICoAUJTPMEAMRAUAivIZBoiBqABAUT7DADEQFQAoymcYIAaiAgBF+QwDxEBUAKAon2GAGIgKABTlMwwQA1EBgKJ8hgFiICoAUJTPMEAMRAUAivIZBoiBqABAUT7DADEQFQAoymcYIAaiAgBF+QwDxEBU4JoA/SqlfIrOxvC1Fniutd6NHFwd2bhv21r7WUr5PDpn+00UeKq1fhk50hlA30spX0fexLabKfBQa30cOdoZQB1PR+R1ewXua60/Rk5rGNDxNmYdNFJ5G9sOr3/6ac0C6ovovhaymN4GjnOO8q7W+nzOhq+3mQJ0/BT6dvj7MPqGtr/KAsNrn5ezmAb0ClFfE/kkukoXZx3UNJ7pW9jrw2qt9Uf6vqiG6KzrdTUbPR2WMI+11v53+hV9Ar0B6e/jd0QdE1DTl+Vig/0Jq69z/h192nrviJYBOnXKZ3yNPrWAu1jmjey4tXbyafjwnc7Fr+/F3+C4VmonrsnU4+NGrvFFD/NPvwrsBVC0iLvoFbrynbfWTn6puxdAbl8B1FO3sT0AcvsK8ByXB+/+uL0HQG5fOaB3b2N7AOT2lQPqX5f0p7HfXrcOyO0rxPMy/t466NYBuX2tA/Tm75K3Dsjtax2gN29jtwzI7WsRnlO3sVsG5Pa1HtBvt7GbAbS4ld1dUYEP+S3sis7XoSwuANDioHvbHUB7u+KLzxegxUH3tjuA9nbFF58vQIuD7m13AO3tii8+X4AWB93b7gDa2xVffL4ALQ66t90BtLcrvvh8AVocdG+7A2hvV3zx+QK0OOjedgfQ3q744vMFaHHQve0OoL1d8cXn+x/06wm+smuhrQAAAABJRU5ErkJggg==;" vertex="1" parent="1">
          <mxGeometry x="1230" y="530" width="144" height="144" as="geometry" />
        </mxCell>
        <mxCell id="e_JsKtyu3cQXQLxI_MyL-5" value="" style="shape=image;verticalLabelPosition=bottom;labelBackgroundColor=default;verticalAlign=top;aspect=fixed;imageAspect=0;image=data:image/png,iVBORw0KGgoAAAANSUhEUgAAAJAAAACQCAYAAADnRuK4AAAAAXNSR0IArs4c6QAABPpJREFUeF7tmwFO4zAQRccngZ5k4SZwEtqTwE0oJ4E9iTejTaWqoo3hB8+YvkgrWFGnkzePb8cpxTggIBAowliGQsAQCAkkAggk4WMwAuGARACBJHwMTidQrfXBzG7M7NbM7uav19ypDzPzf3sze/PvSyn+/xRHGoFqrS7M8yxNCjhJi3CRHrNIlEKgOXVcHo52Ai7RS/vLf+aV4QIhj9TYbSllJ51BHBwq0DxtvYvXcO3DN5HTWbRAr6x5ZP9D10RhAtVa/Q7LBeLQCYSthyIFepq4bXV2nME5Rq2FIgVi+lrP/X0p5X6907WfKVKg2l4mr1wiMCVQSC9D3tRh1FqbBIoCs9SwXj/PzgmBepnwzfdBoDPgsoP5Zr9XH5adEwm0esvXPSECkUCSUQgkCiTRv6LBUTcb6aewK3JAulQEkvAxGIFwQCKAQBI+BiMQDkgEEEjCx2AEwgGJAAJJ+BiMQDggEUCgM/iiwEjdXHEwjzLERxkIlPtzU+kfZSAQAn2aQdmjecVZSDpVdk4kkNTenx+MQKyBJMsQCIEQSCKAQBI+EgiBEEgigEASPhIIgRBIIoBAEj4SCIEQSCKAQBI+EgiBEEgigEASPhIIgRBIIoBAEj4SCIEQSCKAQBI+EgiBEEgigEASPhIIgRBIIoBAEj4SCIEQSCKAQBI+EgiBEEgigEASPhIIgRBIIoBAEj4SCIEQSCKAQBI+EgiBEEgigEASPhIIgRBIIoBAEj4SCIEQSCKAQBI+EgiBEEgigEASPhIIgRBIIoBAEj4SCIEQSCKAQBI+EgiBEEgigEASPhIIgRBIIoBAEj4SCIEQSCKAQBI+EgiBEEgigEASPhIIgRBIIoBAEj4SCIEQSCKAQBI+EgiBEEgigEASPhIIgRBIIoBAEj4SCIEQSCKAQBI+EgiBEEgigEASPhIIgRBIIoBAEj4SCIEQSCKAQBI+EgiBEEgigEASPhIIgRBIIoBAEj4SSBRIon9Fg0spJeJyQ97UL7T1NysCyojviUAjdi1RzQiUqBkjloJAI3YtUc0IlKgZI5aCQCN2LVHNCJSoGSOWgkAjdi1RzQiUqBkjloJAZ7oWBSaLRK0brlGc0u9ER4FBoDYCCHT+Wd2dmd2a2Y2ZvZnZRynlow3req8igcSHqb0TqNbq0jybmQt0fOzN7LG3RAg0kECzPO8X8sMT6L6nRAg0lkBPU7nbhQloO6Xibr1J6vKZEGgsgV4/mbpOr2BfSrlHoP8EWEQfmVBr9enL10AXj57rMhJorARqEcjvxjZLkq31cwQaSyDWQF80nynsBNjCNNY1fbw0EmigBJob5vs/vg90uhbyfaBdKcW/djsQaDCBDuXWWl2kP9Pm4d/pzszvvLrvQpNAF35Ps/9mdYuYhTfKzok1UBZTBk3qSIFabpmTtzdNed0X94crjxSoZdc3TYeSF9J1d/yYRaRAfqfzkLwxo5TX9flcFoFcHpeIQyfgnxDour0QPoXNt6isg3R5wqYvLz1sCpsF8s06XwstPsDUOf/aM2yi9qjCBZolann+9Gu7L15Y2NonxRR2KGLaLHOJfE1EErUbFbbuSbGIPuV04bPI7Uiv45Uhn80+hzZ0DfRZUUfPoA5/FUEqmb34X4X4c7lSin+f5kgnUBoyFNJEAIGaMPGiYaYwWjUWARJorH6lqxaB0rVkrIIQaKx+pav2H7iq175OKyAfAAAAAElFTkSuQmCC;" vertex="1" parent="1">
          <mxGeometry x="1230" y="770" width="144" height="144" as="geometry" />
        </mxCell>
        <mxCell id="e_JsKtyu3cQXQLxI_MyL-6" value="" style="endArrow=classic;html=1;rounded=0;" edge="1" parent="1">
          <mxGeometry width="50" height="50" relative="1" as="geometry">
            <mxPoint x="80" y="520" as="sourcePoint" />
            <mxPoint x="1080" y="520" as="targetPoint" />
          </mxGeometry>
        </mxCell>
      </root>
    </mxGraphModel>
  </diagram>
</mxfile>
